<?xml version="1.0" encoding="UTF-8"?>
<svg id="Layer_1" data-name="Layer 1" xmlns="http://www.w3.org/2000/svg" viewBox="0 0 275.52 274.36">
  <defs>
    <style>
      .cls-1 {
        fill: #231f20;
      }
    </style>
  </defs>
  <path class="cls-1" d="M182.68.18c-3.7,0-7.66.13-11.78.38-4.09.26-8.19.64-12.17,1.14-4,.51-7.98,1.26-11.81,2.25-2.6.67-5.28,1.46-8.4,2.46l-.85.25-.78-.25c-3.12-1-5.79-1.78-8.41-2.46-3.85-.99-7.83-1.75-11.81-2.25-4.03-.5-8.12-.89-12.18-1.14-4.13-.25-8.1-.38-11.79-.38L0,0l1.47,3.1c3.12,6.59,5.19,13.95,6.16,21.88,1.29,10.6,1.95,22.76,1.95,36.16l-.12,211.06v2.17h84.01c4.1,0,8.26-.13,12.37-.38,4.12-.25,8.39-.69,12.68-1.33,4.25-.62,8.45-1.45,12.47-2.46,1.94-.48,3.93-1.04,5.89-1.66l.83-.24.76.23c1.97.62,3.97,1.18,5.92,1.67,4.03,1.01,8.23,1.84,12.46,2.45,4.3.63,8.57,1.08,12.69,1.33,4.13.25,8.29.38,12.37.38h83.89V61.14c0-13.4.66-25.57,1.95-36.17.97-8.03,3.06-15.32,6.21-21.67l1.55-3.13h-92.84ZM240.12,119.74h-57.05c-10.78,0-20.44-1.55-28.73-4.62l-4.31-1.56,3.71-2.71c5.11-3.74,9.33-7.95,12.55-12.5,7.74-10.92,11.66-23.57,11.66-37.6,0-4.94-.44-9.56-1.3-13.73-.85-4.12-2.14-8-3.84-11.53-1.73-3.56-3.7-6.77-5.87-9.54-.82-1.04-1.76-2.12-3.03-3.46l-3.17-3.52,4.54-.9c3.94-.78,8.05-1.31,12.22-1.57,4.22-.26,8.42-.39,12.49-.39l50.24.12-.12,103.52ZM139.61,103.81l-1.98,1.91-1.83-1.89c-8.49-8.76-12.8-21.56-12.8-38.07,0-4.79.48-9.27,1.42-13.33.96-4.09,2.42-7.84,4.34-11.13,1.9-3.25,4.1-6.2,6.55-8.79.13-.15.28-.28.44-.42l2.15-1.78,1.76,1.79c.15.13.3.26.45.42,2.44,2.58,4.63,5.53,6.53,8.78,1.92,3.3,3.38,7.05,4.34,11.13.94,4.05,1.41,8.53,1.41,13.32,0,16.51-4.31,29.33-12.77,38.04ZM111.5,22.47c-1.3,1.37-2.25,2.45-3.06,3.49-2.17,2.77-4.15,5.98-5.87,9.54-1.7,3.53-2.99,7.41-3.84,11.53-.86,4.17-1.3,8.79-1.3,13.73,0,14.02,3.92,26.68,11.66,37.6,3.21,4.54,7.44,8.75,12.52,12.47l3.64,2.82-4.26,1.33c-8.25,3.06-17.9,4.61-28.7,4.61l-57.16.28.12-103.76,44.88-.1,5.23.09c4.07,0,8.28.13,12.51.39,4.16.26,8.28.79,12.18,1.56l4.62,1.05-3.18,3.36ZM35.14,135.93h58.33c5.66,0,11.11.33,16.2.97l6.63.8-5.54,3.68c-4.21,2.79-7.98,5.86-11.2,9.12-11.39,11.52-17.16,26.32-17.16,44.02,0,5.72.44,11.21,1.31,16.32.87,5.09,2.12,9.79,3.72,13.96,1.61,4.19,3.6,8.19,5.93,11.86,2.34,3.7,4.96,7.06,7.77,9.99,1.99,2.09,4.32,4.22,7.06,6.48l4.78,4.11-6.19.56c-4.64.42-9,.63-13.31.63l-51.34-.07-.63-1.58c-2.65-6.62-4.4-14.26-5.19-22.7-.77-8.31-1.17-17.86-1.17-28.39v-69.76ZM128.39,151.23c2.2-1.81,4.81-3.57,7.98-5.39l1.31-.75,1.31.75c3.14,1.8,5.76,3.57,7.99,5.39,12.79,10.51,19.27,25.33,19.27,44.05,0,23.13-6.52,39.67-19.39,49.15h0c-2.22,1.64-4.83,3.22-7.95,4.83l-1.27.62-1.17-.6c-3.19-1.64-5.79-3.22-7.98-4.84-12.86-9.48-19.39-26.02-19.39-49.15,0-18.72,6.48-33.54,19.27-44.05ZM167.16,253.15c2.75-2.27,5.07-4.39,7.08-6.49,2.81-2.94,5.43-6.3,7.78-9.99,2.33-3.69,4.33-7.69,5.93-11.87,1.59-4.17,2.84-8.87,3.72-13.95.87-5.11,1.31-10.6,1.31-16.33,0-17.7-5.77-32.51-17.16-44.02-3.23-3.26-7.01-6.34-11.18-9.11l-5.53-3.84,6.63-.66c5.07-.64,10.51-.96,16.16-.96l58.33.12v69.65c0,10.52-.39,20.07-1.17,28.38-.79,8.45-2.54,16.1-5.17,22.67l-.73,1.69h-51.26c-4.31,0-8.67-.21-13.29-.63l-6.26-.71,4.8-3.95Z"/>
</svg>